# xmcd CD database file
#
# Track frame offsets:
#	150
#	18727
#	39012
#	66285
#	96082
#	119907
#	138950
#	159172
#	177121
#	200087
#	227849
#	242310
#	259318
#	284166
#	318343
#
# Disc length: 4362 seconds
#
# Revision: 1
# Processed by: cddbd v1.4PL0 Copyright (c) Steve Scherf et al.
# Submitted via: CDex 1.50
#
DISCID=d611080f
DTITLE=Various Artist - NAV October 2001 Sampler
DYEAR=2001
DGENRE=New Age
TTITLE0=Jim Wilson -Discovery
TTITLE1=Lisa Walker - Mysticete
TTITLE2=Anugama - Shamanic Journey
TTITLE3=Steven Halpern Cruise Control
TTITLE4=Scott August - Thirst
TTITLE5=B-Tribe - Adagio in G-Minor
TTITLE6=Dasha Ray - Heart's Desire
TTITLE7=Mark Gutierriez - Spanish Nights
TTITLE8=Robert Davidson - Meditation Two
TTITLE9=Moroccan Spirit - Jila La I
TTITLE10=Betty Picard - Sleep, Little Dove
TTITLE11=Loren Gold - Cascade
TTITLE12=Jeffrey Michael - Reflections
TTITLE13=Cyrille Verdeaux - Remember Jonathan
TTITLE14=Multimedia
EXTD=YEAR: 2001
EXTT0=
EXTT1=
EXTT2=
EXTT3=
EXTT4=
EXTT5=
EXTT6=
EXTT7=
EXTT8=
EXTT9=
EXTT10=
EXTT11=
EXTT12=
EXTT13=
EXTT14=
PLAYORDER=
